<svg id="Layer_1" data-name="Layer 1" xmlns="http://www.w3.org/2000/svg" viewBox="0 0 54 54"><defs><style>.cls-1{fill:#fff;}.cls-2{fill:#000;}</style></defs><polygon class="cls-1" points="19.47 7.42 19.47 28.88 15.57 24.98 11.67 24.98 11.67 28.88 13.62 30.84 21.42 46.44 37.03 46.44 38.98 42.54 40.93 36.69 40.93 23.03 38.98 21.08 35.08 19.13 29.23 17.18 25.32 15.23 23.37 7.42 19.47 7.42"/><rect class="cls-2" x="11.67" y="28.88" width="1.95" height="1.95"/><rect class="cls-2" x="13.62" y="30.83" width="1.95" height="3.9"/><polygon class="cls-2" points="11.67 24.98 15.57 24.98 15.57 23.03 11.67 23.03 11.67 24.98 9.72 24.98 9.72 28.88 11.67 28.88 11.67 24.98"/><polygon class="cls-2" points="17.52 26.93 17.52 28.88 19.47 28.88 19.47 7.42 17.52 7.42 17.52 24.98 15.57 24.98 15.57 26.93 17.52 26.93"/><rect class="cls-2" x="15.57" y="34.74" width="1.95" height="3.9"/><rect class="cls-2" x="17.52" y="38.64" width="1.95" height="3.9"/><polygon class="cls-2" points="37.03 46.44 21.42 46.44 21.42 42.54 19.47 42.54 19.47 48.39 38.98 48.39 38.98 42.54 37.03 42.54 37.03 46.44"/><rect class="cls-2" x="38.98" y="36.69" width="1.95" height="5.85"/><rect class="cls-2" x="19.47" y="5.47" width="3.9" height="1.95"/><polygon class="cls-2" points="23.37 24.98 25.32 24.98 25.32 17.18 29.23 17.18 29.23 15.23 25.32 15.23 25.32 7.42 23.37 7.42 23.37 24.98"/><polygon class="cls-2" points="29.23 24.98 31.18 24.98 31.18 19.13 35.08 19.13 35.08 17.18 29.23 17.18 29.23 24.98"/><polygon class="cls-2" points="35.08 26.93 37.03 26.93 37.03 21.08 38.98 21.08 38.98 19.13 35.08 19.13 35.08 26.93"/><rect class="cls-2" x="38.98" y="21.08" width="1.95" height="1.95"/><rect class="cls-2" x="40.93" y="23.03" width="1.95" height="13.66"/></svg>