<svg id="Layer_1" data-name="Layer 1" xmlns="http://www.w3.org/2000/svg" viewBox="0 0 54 54"><defs><style>.cls-1{fill:#fff;}.cls-2{fill:#1c1c1c;}</style></defs><polygon class="cls-1" points="19.47 42.15 27.27 34.34 27.27 36.3 31.18 44.1 35.08 44.1 35.08 40.2 31.18 32.39 38.98 32.39 38.98 30.44 19.47 10.93 19.47 42.15"/><polygon class="cls-2" points="19.47 12.88 21.42 12.88 21.42 10.93 19.47 10.93 19.47 8.98 17.52 8.98 17.52 42.15 21.42 42.15 21.42 40.2 19.47 40.2 19.47 12.88"/><rect class="cls-2" x="21.42" y="12.89" width="1.95" height="1.95"/><rect class="cls-2" x="23.37" y="14.84" width="1.95" height="1.95"/><rect class="cls-2" x="25.32" y="16.79" width="1.95" height="1.95"/><rect class="cls-2" x="27.27" y="18.74" width="1.95" height="1.95"/><rect class="cls-2" x="29.23" y="20.69" width="1.95" height="1.95"/><rect class="cls-2" x="31.18" y="22.64" width="1.95" height="1.95"/><rect class="cls-2" x="33.13" y="24.59" width="1.95" height="1.95"/><rect class="cls-2" x="35.08" y="26.54" width="1.95" height="1.95"/><rect class="cls-2" x="37.03" y="28.49" width="1.95" height="1.95"/><polygon class="cls-2" points="38.98 30.44 38.98 32.39 31.18 32.39 31.18 36.3 33.13 36.3 33.13 34.34 40.93 34.34 40.93 30.44 38.98 30.44"/><rect class="cls-2" x="33.13" y="36.3" width="1.95" height="3.9"/><rect class="cls-2" x="31.18" y="44.1" width="3.9" height="1.95"/><rect class="cls-2" x="29.23" y="40.2" width="1.95" height="3.9"/><rect class="cls-2" x="27.27" y="36.3" width="1.95" height="3.9"/><rect class="cls-2" x="25.32" y="34.35" width="1.95" height="1.95"/><rect class="cls-2" x="23.37" y="36.3" width="1.95" height="1.95"/><rect class="cls-2" x="21.42" y="38.25" width="1.95" height="1.95"/><rect class="cls-2" x="35.08" y="40.2" width="1.95" height="3.9"/></svg>