<svg id="작업" xmlns="http://www.w3.org/2000/svg" viewBox="0 0 249.45 153.07">
  <defs>
    <style>
      .cls-1 {
        fill: #89d0e1;
      }

      .cls-2 {
        fill: #a1dcef;
      }

      .cls-3 {
        fill: #154249;
      }

      .cls-4 {
        fill: #ce4253;
      }
    </style>
  </defs>
  <g>
    <rect class="cls-1" y="18.53" width="249.45" height="0.5"/>
    <rect class="cls-1" y="19.82" width="249.45" height="0.25"/>
    <rect class="cls-2" y="33.98" width="249.45" height="0.25"/>
    <rect class="cls-2" y="48.18" width="249.45" height="0.25"/>
    <rect class="cls-2" y="62.37" width="249.45" height="0.25"/>
    <rect class="cls-2" y="76.57" width="249.45" height="0.25"/>
    <rect class="cls-2" y="90.76" width="249.45" height="0.25"/>
    <rect class="cls-2" y="104.96" width="249.45" height="0.25"/>
    <rect class="cls-2" y="119.16" width="249.45" height="0.25"/>
    <rect class="cls-2" y="133.35" width="249.45" height="0.25"/>
    <rect class="cls-1" y="147.42" width="249.45" height="0.5"/>
  </g>
  <g>
    <path class="cls-3" d="M100.34,55.68v2.41H100l-.16-.58a1.48,1.48,0,0,1-1.29.62,1.69,1.69,0,0,1-1.43-.7,2.7,2.7,0,0,1-.52-1.69A2.76,2.76,0,0,1,97.14,54a1.73,1.73,0,0,1,1.47-.71,1.66,1.66,0,0,1,1.69,1.35l-.56.14a1.23,1.23,0,0,0-.45-.76,1.17,1.17,0,0,0-.71-.24,1.11,1.11,0,0,0-1,.56,2.71,2.71,0,0,0-.33,1.4,2.37,2.37,0,0,0,.37,1.42,1.16,1.16,0,0,0,1,.51,1.12,1.12,0,0,0,.82-.33,1.22,1.22,0,0,0,.33-.9,2.26,2.26,0,0,0,0-.25H98.59v-.49Z"/>
    <path class="cls-3" d="M101.9,58h-.53V54.58h.47v.8a1.8,1.8,0,0,1,.5-.74,1,1,0,0,1,.52-.17l.21,0V55H103a1,1,0,0,0-.74.33,1.36,1.36,0,0,0-.32.87Z"/>
    <path class="cls-3" d="M106.38,58h-.53a5.78,5.78,0,0,1-.07-.62,1.24,1.24,0,0,1-1.21.72,1.25,1.25,0,0,1-.89-.31,1,1,0,0,1-.31-.74,1,1,0,0,1,.45-.86,2.51,2.51,0,0,1,1.51-.34h.45a2.07,2.07,0,0,0-.06-.59.51.51,0,0,0-.27-.29,1.15,1.15,0,0,0-.54-.11c-.54,0-.86.21-1,.62l-.49-.08c.12-.64.63-1,1.52-1a1.37,1.37,0,0,1,1,.32,1.62,1.62,0,0,1,.29,1.09v1.47A2.8,2.8,0,0,0,106.38,58Zm-.6-1.73-.49,0a1.92,1.92,0,0,0-1,.21.66.66,0,0,0-.35.61.58.58,0,0,0,.18.43.78.78,0,0,0,.55.18,1,1,0,0,0,.8-.35,1.21,1.21,0,0,0,.31-.83A2,2,0,0,0,105.78,56.3Z"/>
    <path class="cls-3" d="M107.91,59.2h-.53V54.58h.48v.67a1.18,1.18,0,0,1,2.08-.26,2.15,2.15,0,0,1,.37,1.3,2.18,2.18,0,0,1-.38,1.34,1.21,1.21,0,0,1-1,.5,1.16,1.16,0,0,1-1-.62Zm0-3.4v1a1.06,1.06,0,0,0,.34.65.84.84,0,0,0,.58.25.8.8,0,0,0,.62-.31,1.6,1.6,0,0,0,.28-1.06,1.81,1.81,0,0,0-.25-1,.76.76,0,0,0-.65-.35.79.79,0,0,0-.58.25A1.29,1.29,0,0,0,107.91,55.8Z"/>
    <path class="cls-3" d="M113.82,58h-.53v-2.1a2.44,2.44,0,0,0-.05-.55.57.57,0,0,0-.22-.32.62.62,0,0,0-.4-.13.88.88,0,0,0-.69.33,1.43,1.43,0,0,0-.28.91V58h-.53V53.36h.53v1.85a1.16,1.16,0,0,1,1-.73,1.19,1.19,0,0,1,.54.12.87.87,0,0,1,.36.32,1.09,1.09,0,0,1,.18.38,3.21,3.21,0,0,1,0,.63Z"/>
    <path class="cls-3" d="M115.45,53.36V54h-.58v-.6Zm0,1.22V58h-.53V54.58Z"/>
    <path class="cls-3" d="M118.54,56.82l.49.08a1.5,1.5,0,0,1-.46.9,1.21,1.21,0,0,1-.87.33,1.26,1.26,0,0,1-1.09-.53,2.16,2.16,0,0,1-.38-1.29,2.08,2.08,0,0,1,.4-1.31,1.29,1.29,0,0,1,1.07-.52,1.22,1.22,0,0,1,.91.34,1.55,1.55,0,0,1,.42.87l-.49.09c-.09-.57-.36-.85-.82-.85a.75.75,0,0,0-.68.37,1.82,1.82,0,0,0-.24,1,2,2,0,0,0,.23,1,.75.75,0,0,0,.67.37C118.14,57.68,118.43,57.39,118.54,56.82Z"/>
    <path class="cls-3" d="M121.56,58V53.36h1.57a1.88,1.88,0,0,1,1.54.68,2.56,2.56,0,0,1,.55,1.64,2.59,2.59,0,0,1-.54,1.67,1.67,1.67,0,0,1-1.36.68Zm.59-.5h.94a1.33,1.33,0,0,0,1.14-.52,2.21,2.21,0,0,0,.39-1.37,2.15,2.15,0,0,0-.37-1.24,1.3,1.3,0,0,0-1.16-.55h-.94Z"/>
    <path class="cls-3" d="M128.32,57l.5.1a1.44,1.44,0,0,1-.53.74,1.58,1.58,0,0,1-.93.29,1.46,1.46,0,0,1-1.15-.5,1.92,1.92,0,0,1-.44-1.31,1.89,1.89,0,0,1,.46-1.33,1.45,1.45,0,0,1,1.14-.51,1.4,1.4,0,0,1,1.09.47,2.14,2.14,0,0,1,.42,1.4h-2.51a1.34,1.34,0,0,0,.33,1.06,1.08,1.08,0,0,0,.69.27A1,1,0,0,0,128.32,57Zm0-1a1.6,1.6,0,0,0-.09-.51.88.88,0,0,0-.3-.39.84.84,0,0,0-.51-.16.91.91,0,0,0-.68.29,1.21,1.21,0,0,0-.32.77Z"/>
    <path class="cls-3" d="M129.22,57.13l.51-.1c.12.43.48.65,1.08.65a1,1,0,0,0,.57-.15.46.46,0,0,0,.23-.42c0-.27-.19-.45-.59-.52l-.73-.14a1.31,1.31,0,0,1-.68-.32.86.86,0,0,1-.25-.63.93.93,0,0,1,.35-.73,1.42,1.42,0,0,1,.93-.29,1.25,1.25,0,0,1,1.38.88l-.49.11a.84.84,0,0,0-.87-.54,1,1,0,0,0-.54.13.43.43,0,0,0-.21.38q0,.38.54.48l.67.12c.71.13,1.06.47,1.06,1a.89.89,0,0,1-.4.77,1.67,1.67,0,0,1-1,.3A1.39,1.39,0,0,1,129.22,57.13Z"/>
    <path class="cls-3" d="M133.49,53.36V54h-.58v-.6Zm0,1.22V58h-.54V54.58Z"/>
    <path class="cls-3" d="M137.36,54v.42a1,1,0,0,0-.5.09.48.48,0,0,0-.16.31,1.23,1.23,0,0,1,.33.83,1.06,1.06,0,0,1-.36.81,1.34,1.34,0,0,1-1,.34l-.23,0-.24,0a.4.4,0,0,0-.22.09.27.27,0,0,0-.13.24.25.25,0,0,0,.19.26,4,4,0,0,0,.88.08,4.92,4.92,0,0,1,.87.08.9.9,0,0,1,.48.28.78.78,0,0,1,.2.53q0,1-1.74,1a2.19,2.19,0,0,1-1.2-.25.75.75,0,0,1-.38-.66.71.71,0,0,1,.53-.69.64.64,0,0,1-.34-.56.67.67,0,0,1,.48-.61,1.11,1.11,0,0,1-.45-.91,1.07,1.07,0,0,1,.38-.84,1.4,1.4,0,0,1,.94-.33,1.6,1.6,0,0,1,.7.15.7.7,0,0,1,.24-.47,1,1,0,0,1,.57-.13Zm-2.28,3.85a.53.53,0,0,0-.38.47.44.44,0,0,0,.31.41,1.82,1.82,0,0,0,.79.15,2.37,2.37,0,0,0,.81-.13c.25-.08.37-.22.37-.42a.35.35,0,0,0-.11-.26.52.52,0,0,0-.3-.13,6.48,6.48,0,0,0-.66,0C135.53,57.93,135.26,57.91,135.08,57.89Zm.64-1.46a.78.78,0,0,0,.56-.21.74.74,0,0,0,.21-.55.72.72,0,0,0-.22-.55.73.73,0,0,0-.54-.22.8.8,0,0,0-.54.2.73.73,0,0,0-.24.58.72.72,0,0,0,.21.54A.76.76,0,0,0,135.72,56.43Z"/>
    <path class="cls-3" d="M140.7,58h-.5V55.81a.88.88,0,0,0-.21-.67.73.73,0,0,0-.51-.2.88.88,0,0,0-.69.33,1.33,1.33,0,0,0-.28.87V58H138V54.58h.5v.63a1.25,1.25,0,0,1,1.09-.73,1.14,1.14,0,0,1,.66.2,1,1,0,0,1,.37.45,3,3,0,0,1,.1.9Z"/>
    <path class="cls-3" d="M144.05,57l.5.1a1.44,1.44,0,0,1-.53.74,1.59,1.59,0,0,1-.94.29,1.45,1.45,0,0,1-1.14-.5,1.92,1.92,0,0,1-.44-1.31A1.89,1.89,0,0,1,142,55a1.45,1.45,0,0,1,1.14-.51,1.4,1.4,0,0,1,1.09.47,2.14,2.14,0,0,1,.42,1.4H142.1a1.34,1.34,0,0,0,.33,1.06,1.08,1.08,0,0,0,.69.27A1,1,0,0,0,144.05,57Zm0-1a1.6,1.6,0,0,0-.09-.51.83.83,0,0,0-.31-.39.8.8,0,0,0-.51-.16.9.9,0,0,0-.67.29,1.21,1.21,0,0,0-.32.77Z"/>
    <path class="cls-3" d="M146,58h-.53V54.58h.47v.8a1.71,1.71,0,0,1,.5-.74.94.94,0,0,1,.51-.17l.21,0V55H147a.93.93,0,0,0-.73.33,1.36,1.36,0,0,0-.32.87Z"/>
    <path class="cls-3" d="M150.43,53.36H151V59.2h-.52Z"/>
    <path class="cls-3" d="M154.77,58V53.36h1.57a1.86,1.86,0,0,1,1.53.68,2.5,2.5,0,0,1,.55,1.64,2.59,2.59,0,0,1-.53,1.67,1.67,1.67,0,0,1-1.36.68Zm.59-.5h.94a1.33,1.33,0,0,0,1.14-.52,2.21,2.21,0,0,0,.39-1.37,2.15,2.15,0,0,0-.37-1.24,1.31,1.31,0,0,0-1.16-.55h-.94Z"/>
    <path class="cls-3" d="M161.53,57l.5.1a1.44,1.44,0,0,1-.53.74,1.59,1.59,0,0,1-.94.29,1.45,1.45,0,0,1-1.14-.5,1.92,1.92,0,0,1-.44-1.31,1.89,1.89,0,0,1,.46-1.33,1.45,1.45,0,0,1,1.14-.51,1.4,1.4,0,0,1,1.09.47,2.14,2.14,0,0,1,.42,1.4h-2.51a1.34,1.34,0,0,0,.33,1.06,1.08,1.08,0,0,0,.69.27A1,1,0,0,0,161.53,57Zm0-1a1.36,1.36,0,0,0-.1-.51.81.81,0,0,0-.3-.39.8.8,0,0,0-.51-.16.9.9,0,0,0-.67.29,1.21,1.21,0,0,0-.32.77Z"/>
    <path class="cls-3" d="M165.3,54.58,164.1,58h-.55l-1.24-3.45h.6l1,2.8.95-2.8Z"/>
    <path class="cls-3" d="M168.09,57l.5.1a1.44,1.44,0,0,1-.53.74,1.58,1.58,0,0,1-.93.29,1.46,1.46,0,0,1-1.15-.5A2.16,2.16,0,0,1,166,55a1.45,1.45,0,0,1,1.14-.51,1.4,1.4,0,0,1,1.09.47,2.14,2.14,0,0,1,.42,1.4h-2.51a1.34,1.34,0,0,0,.33,1.06,1.08,1.08,0,0,0,.69.27A1,1,0,0,0,168.09,57Zm0-1a1.36,1.36,0,0,0-.09-.51.88.88,0,0,0-.3-.39.8.8,0,0,0-.51-.16.91.91,0,0,0-.68.29,1.15,1.15,0,0,0-.31.77Z"/>
    <path class="cls-3" d="M170,58h-.53V53.36H170Z"/>
    <path class="cls-3" d="M172.3,58.13a1.3,1.3,0,0,1-1.1-.53,2.08,2.08,0,0,1-.4-1.31,1.89,1.89,0,0,1,.45-1.32,1.46,1.46,0,0,1,1.11-.49,1.36,1.36,0,0,1,1.13.52,2.06,2.06,0,0,1,.41,1.3,1.91,1.91,0,0,1-.45,1.31A1.45,1.45,0,0,1,172.3,58.13Zm0-.45a.83.83,0,0,0,.68-.34,1.59,1.59,0,0,0,.28-1.05,1.54,1.54,0,0,0-.29-1,.86.86,0,0,0-.68-.32.85.85,0,0,0-.68.32,1.62,1.62,0,0,0-.27,1,1.68,1.68,0,0,0,.27,1.07A.89.89,0,0,0,172.35,57.68Z"/>
    <path class="cls-3" d="M175.24,59.2h-.54V54.58h.49v.67a1.17,1.17,0,0,1,1.09-.77,1.18,1.18,0,0,1,1,.51,2.15,2.15,0,0,1,.37,1.3,2.11,2.11,0,0,1-.39,1.34,1.19,1.19,0,0,1-1,.5,1.15,1.15,0,0,1-1-.62Zm0-3.4v1a1.1,1.1,0,0,0,.33.65.86.86,0,0,0,.59.25.8.8,0,0,0,.62-.31,1.61,1.61,0,0,0,.27-1.06,1.82,1.82,0,0,0-.24-1,.79.79,0,0,0-1.23-.1A1.29,1.29,0,0,0,175.24,55.8Z"/>
    <path class="cls-3" d="M180.72,57l.5.1a1.44,1.44,0,0,1-.53.74,1.58,1.58,0,0,1-.93.29,1.46,1.46,0,0,1-1.15-.5,1.92,1.92,0,0,1-.44-1.31,1.89,1.89,0,0,1,.46-1.33,1.45,1.45,0,0,1,1.14-.51,1.4,1.4,0,0,1,1.09.47,2.14,2.14,0,0,1,.42,1.4h-2.51a1.34,1.34,0,0,0,.33,1.06,1.08,1.08,0,0,0,.69.27A1,1,0,0,0,180.72,57Zm0-1a1.6,1.6,0,0,0-.09-.51.83.83,0,0,0-.31-.39.79.79,0,0,0-.5-.16.91.91,0,0,0-.68.29,1.21,1.21,0,0,0-.32.77Z"/>
    <path class="cls-3" d="M182.62,58h-.53V54.58h.47v.8a1.8,1.8,0,0,1,.5-.74.94.94,0,0,1,.51-.17l.22,0V55h-.11a.94.94,0,0,0-.74.33,1.36,1.36,0,0,0-.32.87Z"/>
  </g>
  <g>
    <path class="cls-1" d="M16.62,85.87H16.2V82.49h1.19a1,1,0,0,1,1.1,1,1,1,0,0,1-.29.72,1,1,0,0,1-.76.29h-.82Zm0-1.73h.78a.65.65,0,0,0,.48-.18.61.61,0,0,0,.18-.47A.67.67,0,0,0,17.9,83a.59.59,0,0,0-.47-.2h-.81Z"/>
    <path class="cls-1" d="M21,85.87h-.39V84.35a2,2,0,0,0,0-.4.46.46,0,0,0-.16-.23.45.45,0,0,0-.29-.1.62.62,0,0,0-.5.24,1,1,0,0,0-.2.66v1.35H19V82.49h.39v1.34a.8.8,0,0,1,.75-.53,1,1,0,0,1,.4.08.73.73,0,0,1,.26.23.94.94,0,0,1,.12.28,1.71,1.71,0,0,1,0,.46Z"/>
    <path class="cls-1" d="M22.63,85.94a1,1,0,0,1-.8-.38,1.55,1.55,0,0,1-.29-1,1.41,1.41,0,0,1,.32-1,1.08,1.08,0,0,1,.81-.35,1,1,0,0,1,.82.37,1.46,1.46,0,0,1,.29.94,1.39,1.39,0,0,1-.32,1A1.06,1.06,0,0,1,22.63,85.94Zm0-.33a.62.62,0,0,0,.5-.24,1.21,1.21,0,0,0,.2-.76,1.13,1.13,0,0,0-.21-.76.67.67,0,0,0-.49-.23.6.6,0,0,0-.49.24,1.09,1.09,0,0,0-.2.75,1.13,1.13,0,0,0,.2.77A.59.59,0,0,0,22.66,85.61Z"/>
    <path class="cls-1" d="M26.34,85.87H26V84.26a.63.63,0,0,0-.16-.49.52.52,0,0,0-.36-.14.62.62,0,0,0-.5.24.92.92,0,0,0-.2.63v1.37h-.39v-2.5h.36v.46a.89.89,0,0,1,.79-.53.78.78,0,0,1,.75.47,2,2,0,0,1,.07.65Z"/>
    <path class="cls-1" d="M28.77,85.12l.36.08a1,1,0,0,1-.39.53,1.09,1.09,0,0,1-.67.21,1.05,1.05,0,0,1-.83-.36,1.4,1.4,0,0,1-.32-1,1.37,1.37,0,0,1,.33-1,1.06,1.06,0,0,1,.83-.37,1,1,0,0,1,.79.34,1.47,1.47,0,0,1,.3,1H27.36a1,1,0,0,0,.23.77.79.79,0,0,0,.51.19A.69.69,0,0,0,28.77,85.12Zm0-.76a1.35,1.35,0,0,0-.07-.37.74.74,0,0,0-.22-.28.59.59,0,0,0-.37-.12.65.65,0,0,0-.49.21.87.87,0,0,0-.23.56Z"/>
  </g>
  <g>
    <path class="cls-3" d="M150.45,84.3H152V82.66h.58V84.3h1.58v.54h-1.58v1.65H152V84.84h-1.58Z"/>
    <path class="cls-3" d="M156.22,84.48a1.42,1.42,0,0,1-1-1.28,1.25,1.25,0,0,1,.5-1,2.15,2.15,0,0,1,1.34-.39,2.1,2.1,0,0,1,1.31.38,1.19,1.19,0,0,1,.48,1c0,.57-.35,1-1,1.22a2.38,2.38,0,0,1,1,.75,1.32,1.32,0,0,1,.22.72,1.34,1.34,0,0,1-.55,1.07,2.29,2.29,0,0,1-1.48.43,2.35,2.35,0,0,1-1.54-.44,1.32,1.32,0,0,1-.55-1C155,85.26,155.38,84.8,156.22,84.48Zm.74.28c-.9.21-1.35.59-1.35,1.13a.83.83,0,0,0,.36.69,1.85,1.85,0,0,0,1.09.27,1.67,1.67,0,0,0,1-.26.79.79,0,0,0,.37-.67C158.41,85.4,157.93,85,157,84.76Zm.07-.61a2.43,2.43,0,0,0,.95-.42.72.72,0,0,0,.28-.58.7.7,0,0,0-.33-.63,1.6,1.6,0,0,0-.87-.21,1.47,1.47,0,0,0-.85.22.71.71,0,0,0-.32.61.81.81,0,0,0,.36.65A2.12,2.12,0,0,0,157,84.15Z"/>
    <path class="cls-3" d="M163.55,86.69v.55h-3.78v-.55a20.36,20.36,0,0,0,2.67-2.21,1.69,1.69,0,0,0,.43-1.06,1,1,0,0,0-.36-.79,1.31,1.31,0,0,0-1.7,0,1.28,1.28,0,0,0-.42.9l-.62-.19a1.82,1.82,0,0,1,1.91-1.57,1.92,1.92,0,0,1,1.34.47,1.46,1.46,0,0,1,.52,1.14,1.75,1.75,0,0,1-.25.9,4.37,4.37,0,0,1-.92,1,19.15,19.15,0,0,1-1.76,1.35Z"/>
    <path class="cls-3" d="M164.42,81.91h.4A5.38,5.38,0,0,1,166,85.25a5.5,5.5,0,0,1-1.16,3.32h-.4a5.82,5.82,0,0,0,1-3.33A6.11,6.11,0,0,0,164.42,81.91Z"/>
    <path class="cls-3" d="M172.87,86.75v.49h-3.74v-.49h1.6V82.63a5.89,5.89,0,0,1-1.47,1.15v-.67a4.75,4.75,0,0,0,1.63-1.31h.48v5Z"/>
    <path class="cls-3" d="M175.18,87.35a1.68,1.68,0,0,1-1.47-.8,3.37,3.37,0,0,1-.55-2,3.53,3.53,0,0,1,.52-2,1.78,1.78,0,0,1,3,0,3.7,3.7,0,0,1,.52,2,3.44,3.44,0,0,1-.54,1.93A1.65,1.65,0,0,1,175.18,87.35Zm0-.53a1.05,1.05,0,0,0,1-.61,3.18,3.18,0,0,0,.33-1.53,3.83,3.83,0,0,0-.33-1.69,1.09,1.09,0,0,0-1-.67,1.07,1.07,0,0,0-1,.61,4.13,4.13,0,0,0,0,3.28A1.07,1.07,0,0,0,175.18,86.82Z"/>
    <path class="cls-3" d="M179.4,85v.48h-1.76V85Z"/>
    <path class="cls-3" d="M183.8,83l-.6.16a1.12,1.12,0,0,0-1.12-.81c-1,0-1.51.83-1.54,2.48a1.74,1.74,0,0,1,1.6-1.08,1.66,1.66,0,0,1,1.25.52,1.73,1.73,0,0,1,.5,1.24,1.91,1.91,0,0,1-3.4,1.13,3,3,0,0,1-.56-1.94,3.83,3.83,0,0,1,.52-2,1.8,1.8,0,0,1,1.64-.85A1.66,1.66,0,0,1,183.8,83ZM182,86.82a1.26,1.26,0,0,0,1.29-1.27,1.26,1.26,0,0,0-.35-.89,1.16,1.16,0,0,0-.88-.37,1.31,1.31,0,0,0-.94.39,1.21,1.21,0,0,0-.4.9A1.25,1.25,0,0,0,182,86.82Z"/>
    <path class="cls-3" d="M186.46,87.24h-.69a6.39,6.39,0,0,1,.55-2.6,7.44,7.44,0,0,1,1.34-2.14h-2.9l.07-.59h3.52v.4a8.34,8.34,0,0,0-1.42,2.39,6.54,6.54,0,0,0-.48,2.36A1.36,1.36,0,0,0,186.46,87.24Z"/>
    <path class="cls-3" d="M190.93,87.24h-.69a6.55,6.55,0,0,1,.54-2.6,7.89,7.89,0,0,1,1.34-2.14h-2.89l.07-.59h3.52v.4a8.61,8.61,0,0,0-1.43,2.39,6.73,6.73,0,0,0-.47,2.36A1.36,1.36,0,0,0,190.93,87.24Z"/>
    <path class="cls-3" d="M197.18,86.75v.49h-3.74v-.49H195V82.63a5.89,5.89,0,0,1-1.47,1.15v-.67a4.66,4.66,0,0,0,1.63-1.31h.48v5Z"/>
    <path class="cls-3" d="M199.28,85v.48h-1.76V85Z"/>
    <path class="cls-3" d="M203.31,81.91l-.06.58h-2.62l-.11,1.73a1.8,1.8,0,0,1,2.6-.07,1.77,1.77,0,0,1,.54,1.33,1.7,1.7,0,0,1-.59,1.35,2.08,2.08,0,0,1-1.45.52,2.05,2.05,0,0,1-1.19-.35,1.63,1.63,0,0,1-.69-.91l.57-.19a1.29,1.29,0,0,0,1.32.92,1.35,1.35,0,0,0,1-.37,1.33,1.33,0,0,0,.38-1,1.2,1.2,0,0,0-.37-1,1.28,1.28,0,0,0-.89-.35,1.47,1.47,0,0,0-1.26.73l-.52-.12.17-2.88Z"/>
    <path class="cls-3" d="M208.37,83l-.6.16a1.12,1.12,0,0,0-1.12-.81c-1,0-1.51.83-1.54,2.48a1.74,1.74,0,0,1,1.6-1.08,1.66,1.66,0,0,1,1.25.52,1.73,1.73,0,0,1,.5,1.24,1.91,1.91,0,0,1-3.4,1.13,3,3,0,0,1-.56-1.94,3.75,3.75,0,0,1,.53-2,1.77,1.77,0,0,1,1.63-.85A1.66,1.66,0,0,1,208.37,83Zm-1.82,3.82a1.26,1.26,0,0,0,1.29-1.27,1.26,1.26,0,0,0-.35-.89,1.16,1.16,0,0,0-.88-.37,1.31,1.31,0,0,0-.94.39,1.21,1.21,0,0,0-.4.9,1.25,1.25,0,0,0,1.28,1.24Z"/>
    <path class="cls-3" d="M213,86.69v.55H209.2v-.55a21.14,21.14,0,0,0,2.67-2.21,1.69,1.69,0,0,0,.43-1.06,1,1,0,0,0-.36-.79,1.29,1.29,0,0,0-2.12.93l-.62-.19a1.82,1.82,0,0,1,1.91-1.57,1.92,1.92,0,0,1,1.34.47,1.48,1.48,0,0,1,.51,1.14,1.84,1.84,0,0,1-.24.9,4.37,4.37,0,0,1-.92,1A20.63,20.63,0,0,1,210,86.69Z"/>
    <path class="cls-3" d="M213.93,86.27l.53-.19a1.16,1.16,0,0,0,1.12.74,1.27,1.27,0,0,0,1.15-.64,3.35,3.35,0,0,0,.39-1.74,1.68,1.68,0,0,1-1.57,1,1.73,1.73,0,0,1-1.75-1.76,1.83,1.83,0,0,1,1.88-1.84,1.82,1.82,0,0,1,1.54.71,3.11,3.11,0,0,1,.53,1.94,3.57,3.57,0,0,1-.56,2.1,1.88,1.88,0,0,1-1.62.8A1.61,1.61,0,0,1,213.93,86.27Zm1.77-1.41a1.21,1.21,0,0,0,.92-.38,1.27,1.27,0,0,0,.38-.9,1.16,1.16,0,0,0-.36-.86,1.23,1.23,0,0,0-.93-.36,1.2,1.2,0,0,0-.93.37,1.28,1.28,0,0,0-.33.9,1.13,1.13,0,0,0,.37.9A1.3,1.3,0,0,0,215.7,84.86Z"/>
  </g>
  <g>
    <path class="cls-1" d="M19.46,114.63h-.41v-3l-1.1,3h-.29l-1.1-3v3H16.2v-3.38h.62l1,2.7,1-2.7h.62Z"/>
    <path class="cls-1" d="M22.23,114.63h-.39c0-.08,0-.23,0-.45a.92.92,0,0,1-.88.52.89.89,0,0,1-.65-.23.71.71,0,0,1-.22-.53.77.77,0,0,1,.32-.63,1.9,1.9,0,0,1,1.1-.24h.33a1.43,1.43,0,0,0-.05-.43.35.35,0,0,0-.19-.21.75.75,0,0,0-.39-.08q-.6,0-.69.45l-.36-.06c.09-.46.45-.69,1.1-.69a1,1,0,0,1,.74.22,1.2,1.2,0,0,1,.21.8v1.06A1.88,1.88,0,0,0,22.23,114.63Zm-.43-1.25-.36,0a1.43,1.43,0,0,0-.72.15.48.48,0,0,0-.25.44.42.42,0,0,0,.13.32.6.6,0,0,0,.4.13.75.75,0,0,0,.58-.26.87.87,0,0,0,.22-.6Z"/>
    <path class="cls-1" d="M23.35,111.25v.43h-.42v-.43Zm0,.88v2.5H23v-2.5Z"/>
    <path class="cls-1" d="M24.5,114.63h-.39v-3.38h.39Z"/>
  </g>
  <g>
    <path class="cls-3" d="M80.52,114.63H80l-1-1.93-.75.86v1.07h-.53V110h.53v3l1.61-1.78h.57l-1.08,1.22Z"/>
    <path class="cls-3" d="M83.3,113.6l.5.1a1.42,1.42,0,0,1-.53.73,1.59,1.59,0,0,1-.94.29,1.42,1.42,0,0,1-1.14-.5,1.89,1.89,0,0,1-.44-1.3,1.87,1.87,0,0,1,.46-1.33,1.45,1.45,0,0,1,1.14-.51,1.37,1.37,0,0,1,1.09.47,2.12,2.12,0,0,1,.42,1.4H81.35a1.32,1.32,0,0,0,.33,1,1,1,0,0,0,.69.28A1,1,0,0,0,83.3,113.6Zm0-1a1.38,1.38,0,0,0-.1-.52.79.79,0,0,0-.3-.38.8.8,0,0,0-.51-.16.87.87,0,0,0-.67.29,1.18,1.18,0,0,0-.32.77Z"/>
    <path class="cls-3" d="M86.94,113.6l.5.1a1.42,1.42,0,0,1-.53.73,1.54,1.54,0,0,1-.93.29,1.44,1.44,0,0,1-1.15-.5,1.89,1.89,0,0,1-.44-1.3,1.92,1.92,0,0,1,.46-1.33,1.45,1.45,0,0,1,1.14-.51,1.37,1.37,0,0,1,1.09.47,2.12,2.12,0,0,1,.42,1.4H85a1.32,1.32,0,0,0,.33,1,1,1,0,0,0,.69.28A1,1,0,0,0,86.94,113.6Zm0-1a1.38,1.38,0,0,0-.09-.52.85.85,0,0,0-.3-.38.8.8,0,0,0-.51-.16.89.89,0,0,0-.68.29,1.13,1.13,0,0,0-.31.77Z"/>
    <path class="cls-3" d="M87.84,113.73l.52-.11q.17.66,1.08.66a1,1,0,0,0,.56-.15.47.47,0,0,0,.24-.43q0-.4-.6-.51l-.72-.14a1.31,1.31,0,0,1-.68-.32.83.83,0,0,1-.26-.63.93.93,0,0,1,.35-.73,1.42,1.42,0,0,1,.93-.29,1.27,1.27,0,0,1,1.39.88l-.5.1a.84.84,0,0,0-.87-.54,1,1,0,0,0-.54.14.42.42,0,0,0-.21.37c0,.26.18.42.54.49l.67.12c.71.12,1.06.47,1.06,1a.92.92,0,0,1-.39.77,1.76,1.76,0,0,1-1,.29A1.39,1.39,0,0,1,87.84,113.73Z"/>
    <path class="cls-3" d="M94.27,114.63h-.48V114a1.18,1.18,0,0,1-1.1.75,1,1,0,0,1-.83-.35,1.46,1.46,0,0,1-.3-1v-2.21h.53v2.21a.89.89,0,0,0,.22.7.67.67,0,0,0,.47.2.8.8,0,0,0,.47-.15,1.23,1.23,0,0,0,.35-.42,1.31,1.31,0,0,0,.14-.59v-2h.53Z"/>
    <path class="cls-3" d="M98.2,114.63h-.56l-1-1.93-.75.86v1.07h-.53V110h.53v3l1.61-1.78h.57L97,112.39Z"/>
    <path class="cls-3" d="M101,113.6l.5.1a1.38,1.38,0,0,1-.54.73,1.54,1.54,0,0,1-.93.29,1.42,1.42,0,0,1-1.14-.5,1.85,1.85,0,0,1-.44-1.3,1.91,1.91,0,0,1,.45-1.33,1.49,1.49,0,0,1,1.15-.51,1.33,1.33,0,0,1,1.08.47,2.07,2.07,0,0,1,.43,1.4H99a1.32,1.32,0,0,0,.33,1,1,1,0,0,0,.69.28A1,1,0,0,0,101,113.6Zm0-1a1.6,1.6,0,0,0-.1-.52.85.85,0,0,0-.3-.38.8.8,0,0,0-.51-.16.9.9,0,0,0-.68.29,1.18,1.18,0,0,0-.31.77Z"/>
    <path class="cls-3" d="M104.62,113.6l.5.1a1.42,1.42,0,0,1-.53.73,1.59,1.59,0,0,1-.94.29,1.42,1.42,0,0,1-1.14-.5,1.89,1.89,0,0,1-.44-1.3,1.87,1.87,0,0,1,.46-1.33,1.45,1.45,0,0,1,1.14-.51,1.37,1.37,0,0,1,1.09.47,2.12,2.12,0,0,1,.42,1.4h-2.51a1.32,1.32,0,0,0,.33,1,1,1,0,0,0,.69.28A1,1,0,0,0,104.62,113.6Zm0-1a1.61,1.61,0,0,0-.09-.52.85.85,0,0,0-.3-.38.84.84,0,0,0-.51-.16.87.87,0,0,0-.68.29,1.18,1.18,0,0,0-.32.77Z"/>
    <path class="cls-3" d="M109.25,111.06l-.19,1.6c0,.12,0,.22,0,.31a.21.21,0,0,0,.23.24c.17,0,.33-.12.48-.37A1.65,1.65,0,0,0,110,112a1.58,1.58,0,0,0-.52-1.24,1.88,1.88,0,0,0-1.3-.46,1.91,1.91,0,0,0-1.38.57,2,2,0,0,0-.58,1.44,2,2,0,0,0,2.08,2,3.28,3.28,0,0,0,1.53-.39l.15.42a3.65,3.65,0,0,1-1.68.4,2.43,2.43,0,0,1-1.85-.72,2.38,2.38,0,0,1-.68-1.7,2.34,2.34,0,0,1,.71-1.74,2.39,2.39,0,0,1,1.72-.7,2.25,2.25,0,0,1,1.59.61,2,2,0,0,1,.63,1.48,2.1,2.1,0,0,1-.34,1.19,1,1,0,0,1-.83.51.55.55,0,0,1-.55-.41.94.94,0,0,1-.77.42,1,1,0,0,1-.77-.36,1.37,1.37,0,0,1-.31-.91,1.4,1.4,0,0,1,.36-1A1.1,1.1,0,0,1,108,111a.83.83,0,0,1,.74.39l0-.34Zm-1.33,2.15a.63.63,0,0,0,.52-.31,1.15,1.15,0,0,0,.22-.71.77.77,0,0,0-.18-.53.53.53,0,0,0-.42-.2.64.64,0,0,0-.5.26,1,1,0,0,0-.22.69.93.93,0,0,0,.17.58A.5.5,0,0,0,107.92,113.21Z"/>
    <path class="cls-3" d="M113.92,114.63h-.5v-2.22a.91.91,0,0,0-.21-.68.71.71,0,0,0-.5-.19.85.85,0,0,0-.69.33,1.25,1.25,0,0,0-.28.86v1.9h-.54v-3.46h.5v.64a1.23,1.23,0,0,1,1.09-.73,1.1,1.1,0,0,1,1,.65,2.6,2.6,0,0,1,.1.9Z"/>
    <path class="cls-3" d="M117.7,114.63h-.53c0-.11,0-.32-.07-.63a1.24,1.24,0,0,1-1.21.72,1.21,1.21,0,0,1-.89-.31,1,1,0,0,1-.31-.74,1,1,0,0,1,.45-.86,2.59,2.59,0,0,1,1.51-.33h.45a2.07,2.07,0,0,0-.06-.59.52.52,0,0,0-.27-.3,1.15,1.15,0,0,0-.54-.11c-.54,0-.86.21-1,.63l-.49-.09c.12-.63.63-1,1.52-1a1.37,1.37,0,0,1,1,.31,1.67,1.67,0,0,1,.29,1.1V114A2.86,2.86,0,0,0,117.7,114.63Zm-.6-1.73-.49,0a1.92,1.92,0,0,0-1,.21.66.66,0,0,0-.35.61.56.56,0,0,0,.19.43.73.73,0,0,0,.54.18,1,1,0,0,0,.8-.36,1.18,1.18,0,0,0,.31-.82A1.93,1.93,0,0,0,117.1,112.9Z"/>
    <path class="cls-3" d="M121.07,111.17l-1.2,3.46h-.55l-1.24-3.46h.6l1,2.81,1-2.81Z"/>
    <path class="cls-3" d="M123.86,113.6l.5.1a1.42,1.42,0,0,1-.53.73,1.59,1.59,0,0,1-.94.29,1.42,1.42,0,0,1-1.14-.5,1.89,1.89,0,0,1-.44-1.3,1.87,1.87,0,0,1,.46-1.33,1.45,1.45,0,0,1,1.14-.51,1.37,1.37,0,0,1,1.09.47,2.12,2.12,0,0,1,.42,1.4h-2.51a1.32,1.32,0,0,0,.33,1,1,1,0,0,0,.69.28A1,1,0,0,0,123.86,113.6Zm0-1a1.61,1.61,0,0,0-.09-.52.81.81,0,0,0-.31-.38.79.79,0,0,0-.5-.16.87.87,0,0,0-.68.29,1.18,1.18,0,0,0-.32.77Z"/>
    <path class="cls-3" d="M125.76,114.63h-.53v-3.46h.47V112a1.64,1.64,0,0,1,.5-.74.94.94,0,0,1,.51-.17h.21v.52h-.1a.94.94,0,0,0-.74.33,1.36,1.36,0,0,0-.32.87Z"/>
    <path class="cls-3" d="M127.88,113.86v.77h-.77v-.77Z"/>
    <path class="cls-3" d="M130.94,113.42l.49.08a1.56,1.56,0,0,1-.46.9,1.38,1.38,0,0,1-2-.2,2.21,2.21,0,0,1-.38-1.29,2.13,2.13,0,0,1,.4-1.31,1.39,1.39,0,0,1,2-.19,1.62,1.62,0,0,1,.42.87l-.49.1c-.09-.57-.36-.86-.82-.86a.76.76,0,0,0-.68.38,1.8,1.8,0,0,0-.24,1,2,2,0,0,0,.23,1,.77.77,0,0,0,.67.37C130.54,114.28,130.83,114,130.94,113.42Z"/>
    <path class="cls-3" d="M133.4,114.72a1.32,1.32,0,0,1-1.11-.52,2.17,2.17,0,0,1-.4-1.31,1.89,1.89,0,0,1,.45-1.32,1.44,1.44,0,0,1,1.12-.49,1.34,1.34,0,0,1,1.12.52,2,2,0,0,1,.41,1.29,1.92,1.92,0,0,1-.44,1.32A1.46,1.46,0,0,1,133.4,114.72Zm0-.44a.86.86,0,0,0,.69-.34,1.69,1.69,0,0,0,.28-1,1.54,1.54,0,0,0-.29-1,.89.89,0,0,0-.68-.33.85.85,0,0,0-.68.33,1.55,1.55,0,0,0-.28,1,1.6,1.6,0,0,0,.28,1.07A.85.85,0,0,0,133.44,114.28Z"/>
    <path class="cls-3" d="M140.43,114.63h-.53v-2.15a2.12,2.12,0,0,0,0-.5.58.58,0,0,0-.23-.3.65.65,0,0,0-.4-.14.84.84,0,0,0-.59.28,1.18,1.18,0,0,0-.29.86v1.95h-.52v-2.28a.84.84,0,0,0-.21-.64.69.69,0,0,0-.46-.19.75.75,0,0,0-.59.3,1.08,1.08,0,0,0-.26.74v2.07h-.51v-3.46h.46v.67a1.17,1.17,0,0,1,1.06-.76.93.93,0,0,1,.64.24,1.13,1.13,0,0,1,.33.58,1.16,1.16,0,0,1,1.09-.82,1,1,0,0,1,.62.2,1,1,0,0,1,.35.46,2.81,2.81,0,0,1,.08.74Z"/>
  </g>
  <g>
    <path class="cls-1" d="M19.82,125.79,19,129.17h-.43l-.73-2.62-.69,2.62h-.43l-.86-3.38h.44l.68,2.74.71-2.74h.35l.77,2.74.63-2.74Z"/>
    <path class="cls-1" d="M21.84,128.43l.36.07a1,1,0,0,1-.39.53,1.11,1.11,0,0,1-.67.21,1,1,0,0,1-.83-.36,1.33,1.33,0,0,1-.32-.94,1.41,1.41,0,0,1,.33-1,1.08,1.08,0,0,1,.83-.37,1,1,0,0,1,.78.34,1.57,1.57,0,0,1,.31,1H20.42a.94.94,0,0,0,.24.76.75.75,0,0,0,.5.2A.69.69,0,0,0,21.84,128.43Zm0-.76a.92.92,0,0,0-.07-.38.62.62,0,0,0-.58-.39.64.64,0,0,0-.49.21.85.85,0,0,0-.23.56Z"/>
    <path class="cls-1" d="M23,129.17h-.19v-3.38h.39v1.3a.84.84,0,0,1,.74-.49.92.92,0,0,1,.72.34,1.46,1.46,0,0,1,.29,1,1.49,1.49,0,0,1-.28.93.88.88,0,0,1-.75.38.85.85,0,0,1-.78-.48Zm.2-1a.75.75,0,0,0,.24.56.68.68,0,0,0,.44.18.56.56,0,0,0,.48-.26,1.22,1.22,0,0,0,.18-.71,1.4,1.4,0,0,0-.17-.76.56.56,0,0,0-.49-.27.61.61,0,0,0-.44.19.87.87,0,0,0-.24.51Z"/>
    <path class="cls-1" d="M25.21,128.53l.37-.08c.08.31.35.47.78.47a.79.79,0,0,0,.42-.11.33.33,0,0,0,.16-.3c0-.2-.14-.33-.42-.38L26,128a1,1,0,0,1-.49-.23.59.59,0,0,1-.19-.46.67.67,0,0,1,.25-.52,1,1,0,0,1,.68-.22.92.92,0,0,1,1,.64l-.36.08a.61.61,0,0,0-.63-.39.75.75,0,0,0-.39.09.32.32,0,0,0-.15.28c0,.18.13.3.39.35l.49.08c.51.09.76.34.76.74a.66.66,0,0,1-.28.56,1.25,1.25,0,0,1-.76.21A1,1,0,0,1,25.21,128.53Z"/>
    <path class="cls-1" d="M28.3,125.79v.44h-.42v-.44Zm0,.88v2.5H27.9v-2.5Z"/>
    <path class="cls-1" d="M30.2,128.91v.31l-.36,0c-.48,0-.72-.25-.72-.76V127h-.45v-.31h.45V126l.36,0v.66h.56V127h-.56v1.57c0,.26.14.39.41.39Z"/>
    <path class="cls-1" d="M32.19,128.43l.36.07a1,1,0,0,1-.39.53,1.09,1.09,0,0,1-.67.21,1.05,1.05,0,0,1-.83-.36,1.37,1.37,0,0,1-.32-.94,1.41,1.41,0,0,1,.33-1,1.09,1.09,0,0,1,.83-.37,1,1,0,0,1,.79.34,1.57,1.57,0,0,1,.3,1H30.77a.94.94,0,0,0,.24.76.75.75,0,0,0,.5.2A.69.69,0,0,0,32.19,128.43Zm0-.76a1.43,1.43,0,0,0-.07-.38.71.71,0,0,0-.22-.27.59.59,0,0,0-.37-.12.65.65,0,0,0-.49.21.85.85,0,0,0-.23.56Z"/>
  </g>
  <g>
    <path class="cls-3" d="M80.52,129.17H80l-1-1.92-.75.86v1.06h-.53v-4.66h.53v3l1.61-1.78h.57l-1.08,1.21Z"/>
    <path class="cls-3" d="M83.3,128.14l.5.11a1.42,1.42,0,0,1-.53.73,1.59,1.59,0,0,1-.94.29,1.45,1.45,0,0,1-1.14-.5,2.16,2.16,0,0,1,0-2.64,1.45,1.45,0,0,1,1.14-.5,1.39,1.39,0,0,1,1.09.46,2.17,2.17,0,0,1,.42,1.41H81.35a1.32,1.32,0,0,0,.33,1.05,1.08,1.08,0,0,0,.69.27A.94.94,0,0,0,83.3,128.14Zm0-1a1.38,1.38,0,0,0-.1-.52.79.79,0,0,0-.3-.38.8.8,0,0,0-.51-.16.89.89,0,0,0-.67.28,1.21,1.21,0,0,0-.32.78Z"/>
    <path class="cls-3" d="M86.94,128.14l.5.11a1.42,1.42,0,0,1-.53.73,1.54,1.54,0,0,1-.93.29,1.47,1.47,0,0,1-1.15-.5,1.91,1.91,0,0,1-.44-1.3,2,2,0,0,1,.46-1.34,1.45,1.45,0,0,1,1.14-.5,1.39,1.39,0,0,1,1.09.46,2.17,2.17,0,0,1,.42,1.41H85a1.32,1.32,0,0,0,.33,1.05,1.08,1.08,0,0,0,.69.27A.94.94,0,0,0,86.94,128.14Zm0-1a1.38,1.38,0,0,0-.09-.52.85.85,0,0,0-.3-.38A.8.8,0,0,0,86,126a.91.91,0,0,0-.68.28,1.16,1.16,0,0,0-.31.78Z"/>
    <path class="cls-3" d="M87.84,128.28l.52-.11c.11.44.47.65,1.08.65a.92.92,0,0,0,.56-.15.47.47,0,0,0,.24-.42q0-.41-.6-.51l-.72-.14a1.31,1.31,0,0,1-.68-.32.84.84,0,0,1-.26-.64.91.91,0,0,1,.35-.72,1.36,1.36,0,0,1,.93-.29,1.27,1.27,0,0,1,1.39.87l-.5.11a.84.84,0,0,0-.87-.54,1,1,0,0,0-.54.13.43.43,0,0,0-.21.38q0,.39.54.48l.67.12c.71.13,1.06.47,1.06,1a.92.92,0,0,1-.39.77,1.76,1.76,0,0,1-1,.29A1.39,1.39,0,0,1,87.84,128.28Z"/>
    <path class="cls-3" d="M94.27,129.17h-.48v-.66a1.17,1.17,0,0,1-1.1.76,1.05,1.05,0,0,1-.83-.35,1.46,1.46,0,0,1-.3-1v-2.21h.53v2.21a.89.89,0,0,0,.22.7.66.66,0,0,0,.47.19.79.79,0,0,0,.47-.14,1.23,1.23,0,0,0,.35-.42,1.31,1.31,0,0,0,.14-.59v-2h.53Z"/>
    <path class="cls-3" d="M98.2,129.17h-.56l-1-1.92-.75.86v1.06h-.53v-4.66h.53v3l1.61-1.78h.57L97,126.93Z"/>
    <path class="cls-3" d="M99.63,128.41v.76h-.77v-.76Z"/>
    <path class="cls-3" d="M103.47,125.18v.43a1,1,0,0,0-.49.08.45.45,0,0,0-.17.31,1.26,1.26,0,0,1,.33.84,1.09,1.09,0,0,1-.36.81,1.37,1.37,0,0,1-1,.33.79.79,0,0,1-.23,0l-.24,0a.42.42,0,0,0-.22.09.26.26,0,0,0-.13.23.25.25,0,0,0,.19.27,4.73,4.73,0,0,0,.88.08,4.3,4.3,0,0,1,.88.08.85.85,0,0,1,.47.28.76.76,0,0,1,.2.53q0,1-1.74,1a2.28,2.28,0,0,1-1.2-.25.77.77,0,0,1-.38-.66.71.71,0,0,1,.53-.7.63.63,0,0,1-.34-.55.66.66,0,0,1,.48-.61,1.15,1.15,0,0,1-.45-.92,1.07,1.07,0,0,1,.38-.84,1.45,1.45,0,0,1,.94-.32,1.59,1.59,0,0,1,.7.14.73.73,0,0,1,.24-.47,1.07,1.07,0,0,1,.57-.13ZM101.19,129a.53.53,0,0,0-.38.48.46.46,0,0,0,.31.41,2,2,0,0,0,.79.14,2.6,2.6,0,0,0,.81-.12c.25-.09.37-.23.37-.42a.37.37,0,0,0-.11-.27.52.52,0,0,0-.3-.13,6.27,6.27,0,0,0-.66,0A7.14,7.14,0,0,1,101.19,129Zm.64-1.46a.78.78,0,0,0,.56-.21.77.77,0,0,0-.55-1.32.76.76,0,0,0-.54.21.7.7,0,0,0-.24.58.73.73,0,0,0,.21.54A.8.8,0,0,0,101.83,127.57Z"/>
    <path class="cls-3" d="M104.64,124.51v.6h-.57v-.6Zm0,1.21v3.45h-.54v-3.45Z"/>
    <path class="cls-3" d="M107.26,128.81v.42a3.1,3.1,0,0,1-.49,0c-.67,0-1-.35-1-1.05v-2.08h-.61v-.42h.61l0-.87.5,0v.91h.77v.42h-.77v2.17a.48.48,0,0,0,.55.54A3.29,3.29,0,0,0,107.26,128.81Z"/>
    <path class="cls-3" d="M110.56,129.17H110v-2.09a2.38,2.38,0,0,0,0-.55.56.56,0,0,0-.22-.33.59.59,0,0,0-.39-.13.87.87,0,0,0-.7.34,1.4,1.4,0,0,0-.27.9v1.86h-.54v-4.66h.54v1.85a1.13,1.13,0,0,1,1-.73,1.19,1.19,0,0,1,.54.12.87.87,0,0,1,.37.31,1.39,1.39,0,0,1,.17.38,3.07,3.07,0,0,1,0,.64Z"/>
    <path class="cls-3" d="M114.35,129.17h-.49v-.66a1.16,1.16,0,0,1-1.1.76,1.05,1.05,0,0,1-.83-.35,1.46,1.46,0,0,1-.3-1v-2.21h.54v2.21a.93.93,0,0,0,.21.7.67.67,0,0,0,.47.19.79.79,0,0,0,.47-.14,1.13,1.13,0,0,0,.35-.42,1.31,1.31,0,0,0,.14-.59v-2h.54Z"/>
    <path class="cls-3" d="M115.68,129.17h-.26v-4.66H116v1.79a1.11,1.11,0,0,1,1-.67,1.27,1.27,0,0,1,1,.46,2.05,2.05,0,0,1,.4,1.37,2.1,2.1,0,0,1-.39,1.29,1.23,1.23,0,0,1-1,.52,1.17,1.17,0,0,1-1.08-.67Zm.28-1.35a1,1,0,0,0,.32.77,1,1,0,0,0,.61.24.8.8,0,0,0,.67-.35,1.75,1.75,0,0,0,.25-1,2,2,0,0,0-.24-1,.78.78,0,0,0-.68-.38.85.85,0,0,0-.61.27,1.14,1.14,0,0,0-.32.7Z"/>
    <path class="cls-3" d="M119.9,128.41v.76h-.76v-.76Z"/>
    <path class="cls-3" d="M121.48,124.51v.6h-.58v-.6Zm0,1.21v3.45h-.54v-3.45Z"/>
    <path class="cls-3" d="M123.77,129.27a1.33,1.33,0,0,1-1.11-.53,2.11,2.11,0,0,1-.39-1.3,1.93,1.93,0,0,1,.44-1.32,1.44,1.44,0,0,1,1.12-.49,1.36,1.36,0,0,1,1.12.51,2,2,0,0,1,.42,1.3,1.92,1.92,0,0,1-.45,1.32A1.45,1.45,0,0,1,123.77,129.27Zm0-.45a.85.85,0,0,0,.69-.33,1.64,1.64,0,0,0,.28-1.06,1.56,1.56,0,0,0-.29-1,.91.91,0,0,0-.68-.32.86.86,0,0,0-.68.33,1.58,1.58,0,0,0-.28,1,1.65,1.65,0,0,0,.28,1.07A.85.85,0,0,0,123.81,128.82Z"/>
    <path class="cls-3" d="M125.77,130.34h-.46l2.82-5.83h.45Z"/>
    <path class="cls-3" d="M128.81,129.64h3.5v.47h-3.5Z"/>
    <path class="cls-3" d="M132.31,129.64h3.5v.47h-3.5Z"/>
    <path class="cls-3" d="M138.63,128.14l.5.11a1.42,1.42,0,0,1-.53.73,1.59,1.59,0,0,1-.94.29,1.45,1.45,0,0,1-1.14-.5,1.91,1.91,0,0,1-.44-1.3,2,2,0,0,1,.45-1.34,1.48,1.48,0,0,1,1.15-.5,1.39,1.39,0,0,1,1.09.46,2.17,2.17,0,0,1,.42,1.41h-2.51a1.32,1.32,0,0,0,.33,1.05,1.08,1.08,0,0,0,.69.27A.94.94,0,0,0,138.63,128.14Zm0-1a1.38,1.38,0,0,0-.1-.52.79.79,0,0,0-.3-.38.8.8,0,0,0-.51-.16.89.89,0,0,0-.67.28,1.21,1.21,0,0,0-.32.78Z"/>
    <path class="cls-3" d="M139.53,128.28l.51-.11c.12.44.48.65,1.08.65a.93.93,0,0,0,.57-.15.46.46,0,0,0,.23-.42c0-.27-.19-.44-.59-.51l-.73-.14a1.39,1.39,0,0,1-.68-.32.83.83,0,0,1-.25-.64.91.91,0,0,1,.35-.72,1.36,1.36,0,0,1,.93-.29,1.25,1.25,0,0,1,1.38.87l-.49.11a.84.84,0,0,0-.87-.54,1,1,0,0,0-.54.13.43.43,0,0,0-.21.38q0,.39.54.48l.67.12c.7.13,1.06.47,1.06,1a.91.91,0,0,1-.4.77,1.73,1.73,0,0,1-1,.29A1.39,1.39,0,0,1,139.53,128.28Z"/>
    <path class="cls-3" d="M146,129.17h-.49v-.66a1.16,1.16,0,0,1-1.1.76,1.05,1.05,0,0,1-.83-.35,1.46,1.46,0,0,1-.3-1v-2.21h.54v2.21a.93.93,0,0,0,.21.7.67.67,0,0,0,.47.19.79.79,0,0,0,.47-.14,1.13,1.13,0,0,0,.35-.42,1.2,1.2,0,0,0,.14-.59v-2H146Z"/>
    <path class="cls-3" d="M149.88,129.17h-.55l-1-1.92-.75.86v1.06H147v-4.66h.54v3l1.6-1.78h.58l-1.08,1.21Z"/>
    <path class="cls-3" d="M152.67,128.14l.49.11a1.36,1.36,0,0,1-.53.73,1.54,1.54,0,0,1-.93.29,1.48,1.48,0,0,1-1.15-.5,1.91,1.91,0,0,1-.43-1.3,2,2,0,0,1,.45-1.34,1.45,1.45,0,0,1,1.14-.5,1.38,1.38,0,0,1,1.09.46,2.12,2.12,0,0,1,.42,1.41h-2.51a1.32,1.32,0,0,0,.33,1.05,1.08,1.08,0,0,0,.7.27A.94.94,0,0,0,152.67,128.14Zm0-1a1.38,1.38,0,0,0-.09-.52.85.85,0,0,0-.3-.38.8.8,0,0,0-.51-.16.91.91,0,0,0-.68.28,1.16,1.16,0,0,0-.31.78Z"/>
    <path class="cls-3" d="M153.49,129.64H157v.47h-3.5Z"/>
  </g>
  <rect class="cls-4" x="52.51" width="0.25" height="153.07"/>
  <rect class="cls-4" x="53.51" width="0.25" height="153.07"/>
  <g>
    <g>
      <path class="cls-3" d="M16.91,26.68a4.94,4.94,0,0,1,.62-2.61,2,2,0,0,1,3.43,0,4.76,4.76,0,0,1,.64,2.61,4.84,4.84,0,0,1-.63,2.6,1.94,1.94,0,0,1-1.72,1,1.92,1.92,0,0,1-1.72-1A4.9,4.9,0,0,1,16.91,26.68Zm.81,0a4.84,4.84,0,0,0,.39,2.07,1.2,1.2,0,0,0,2.28,0,4.81,4.81,0,0,0,.39-2.05,4.84,4.84,0,0,0-.39-2.07,1.2,1.2,0,0,0-2.28,0A4.89,4.89,0,0,0,17.72,26.68Zm5.92,5.23V22.56h.8v9.35Z"/>
      <path class="cls-3" d="M27.19,30.06a9.82,9.82,0,0,0,2.87-2.71,5.69,5.69,0,0,0,1.1-3.14H27.68v-.73H32q0,4.26-4.25,7.11Zm6.91,1.85V22.56h.8v9.35Z"/>
      <path class="cls-3" d="M37.52,27.46a7.92,7.92,0,0,0,.92-.58,6.79,6.79,0,0,0,.87-.78,3.45,3.45,0,0,0,.7-1.05,3.14,3.14,0,0,0,.25-1.25v-.93H41v.92A3,3,0,0,0,41.28,25a3.66,3.66,0,0,0,.64,1,6,6,0,0,0,1.66,1.28l-.48.55a5.82,5.82,0,0,1-1.38-1,4.64,4.64,0,0,1-1.06-1.38,4.52,4.52,0,0,1-1.08,1.44A7.68,7.68,0,0,1,38,28Zm1.71,2v-.69h6.5V32h-.79V29.5Zm3.47-4.08v-.7H45V22.56h.79v5.73H45V25.42Z"/>
    </g>
    <g>
      <path class="cls-3" d="M65,30.76h-.82l-1.79-3.31L61,29.16v1.6h-.75v-6H61v3.48l2.72-3.48h.81l-1.63,2.1Z"/>
      <path class="cls-3" d="M68.58,29.44l.65.13a1.83,1.83,0,0,1-.69.94,2,2,0,0,1-1.2.37,1.84,1.84,0,0,1-1.47-.64,2.4,2.4,0,0,1-.56-1.68,2.48,2.48,0,0,1,.58-1.71,1.91,1.91,0,0,1,1.47-.65,1.79,1.79,0,0,1,1.4.6,2.72,2.72,0,0,1,.54,1.8H66.07A1.72,1.72,0,0,0,66.5,30a1.39,1.39,0,0,0,.89.35A1.22,1.22,0,0,0,68.58,29.44Zm0-1.35a1.78,1.78,0,0,0-.12-.67,1.07,1.07,0,0,0-.39-.49,1,1,0,0,0-.65-.2,1.19,1.19,0,0,0-.87.36,1.49,1.49,0,0,0-.4,1Z"/>
      <path class="cls-3" d="M73.27,29.44l.64.13a1.83,1.83,0,0,1-.69.94,1.94,1.94,0,0,1-1.19.37,1.87,1.87,0,0,1-1.48-.64A2.45,2.45,0,0,1,70,28.56a2.53,2.53,0,0,1,.58-1.71A1.91,1.91,0,0,1,72,26.2a1.77,1.77,0,0,1,1.4.6A2.67,2.67,0,0,1,74,28.6H70.76A1.72,1.72,0,0,0,71.18,30a1.39,1.39,0,0,0,.89.35A1.22,1.22,0,0,0,73.27,29.44Zm0-1.35a2.28,2.28,0,0,0-.12-.67,1.21,1.21,0,0,0-.39-.49,1,1,0,0,0-.66-.2,1.19,1.19,0,0,0-.87.36,1.54,1.54,0,0,0-.4,1Z"/>
      <path class="cls-3" d="M74.42,29.61l.66-.14c.15.56.61.84,1.39.84a1.3,1.3,0,0,0,.73-.19.62.62,0,0,0,.3-.55c0-.34-.25-.56-.76-.66l-.94-.18a1.69,1.69,0,0,1-.87-.41,1.06,1.06,0,0,1-.33-.81,1.18,1.18,0,0,1,.45-.94,1.77,1.77,0,0,1,1.19-.37A1.63,1.63,0,0,1,78,27.33l-.63.13a1.1,1.1,0,0,0-1.13-.69,1.31,1.31,0,0,0-.69.17.56.56,0,0,0-.27.49c0,.33.23.53.69.62l.87.15c.9.17,1.36.61,1.36,1.32a1.17,1.17,0,0,1-.51,1,2.19,2.19,0,0,1-1.34.37A1.79,1.79,0,0,1,74.42,29.61Z"/>
      <path class="cls-3" d="M82.69,30.76h-.62v-.85a1.52,1.52,0,0,1-1.42,1,1.31,1.31,0,0,1-1.06-.45,1.86,1.86,0,0,1-.39-1.27V26.32h.69v2.84a1.18,1.18,0,0,0,.27.9.87.87,0,0,0,.61.25,1,1,0,0,0,.6-.19,1.36,1.36,0,0,0,.45-.54,1.61,1.61,0,0,0,.18-.76v-2.5h.69Z"/>
      <path class="cls-3" d="M87.74,30.76H87l-1.3-2.48-1,1.11v1.37h-.69v-6h.69v3.85l2.06-2.29h.74l-1.39,1.56Z"/>
      <path class="cls-3" d="M94.43,30.1v.66H90.89v-6h.77V30.1Z"/>
      <path class="cls-3" d="M98.17,29.44l.64.13a1.83,1.83,0,0,1-.69.94,2,2,0,0,1-1.2.37,1.87,1.87,0,0,1-1.47-.64,2.45,2.45,0,0,1-.56-1.68,2.48,2.48,0,0,1,.58-1.71,1.91,1.91,0,0,1,1.47-.65,1.77,1.77,0,0,1,1.4.6,2.67,2.67,0,0,1,.54,1.8H95.66A1.72,1.72,0,0,0,96.08,30a1.39,1.39,0,0,0,.89.35A1.22,1.22,0,0,0,98.17,29.44Zm0-1.35a2.28,2.28,0,0,0-.12-.67,1.21,1.21,0,0,0-.39-.49,1,1,0,0,0-.66-.2,1.19,1.19,0,0,0-.87.36,1.54,1.54,0,0,0-.4,1Z"/>
      <path class="cls-3" d="M102.85,29.44l.64.13a1.76,1.76,0,0,1-.68.94,2,2,0,0,1-1.2.37,1.84,1.84,0,0,1-1.47-.64,2.41,2.41,0,0,1-.57-1.68,2.48,2.48,0,0,1,.59-1.71,1.91,1.91,0,0,1,1.47-.65,1.79,1.79,0,0,1,1.4.6,2.72,2.72,0,0,1,.54,1.8h-3.23a1.69,1.69,0,0,0,.43,1.36,1.37,1.37,0,0,0,.89.35A1.22,1.22,0,0,0,102.85,29.44Zm0-1.35a1.78,1.78,0,0,0-.12-.67,1.14,1.14,0,0,0-.39-.49,1,1,0,0,0-.65-.2,1.17,1.17,0,0,0-.87.36,1.55,1.55,0,0,0-.41,1Z"/>
    </g>
  </g>
</svg>
