<svg id="Layer_1" data-name="Layer 1" xmlns="http://www.w3.org/2000/svg" viewBox="0 0 54 54"><defs><style>.cls-1{fill:#fff;}.cls-2{fill:#1c1c1c;}</style></defs><polygon class="cls-1" points="13.29 2.48 10.84 2.48 10.84 24.49 7.4 24.49 7.4 23.04 3.51 23.04 3.51 24.49 1.06 24.49 1.06 29.38 3.51 29.38 3.51 31.82 5.95 31.82 5.95 36.71 8.4 36.71 8.4 41.6 10.84 41.6 10.84 46.5 13.29 46.5 13.29 53.83 35.74 53.83 35.74 46.5 38.19 46.5 38.19 39.16 40.63 39.16 40.63 23.04 39.19 23.04 39.19 22.04 38.19 22.04 38.19 20.6 36.74 20.6 36.74 19.6 35.74 19.6 35.74 18.15 31.85 18.15 31.85 17.15 30.85 17.15 30.85 15.34 24.52 15.34 24.52 14.71 23.52 14.71 23.52 13.26 18.63 13.26 18.63 2.48 16.18 2.48 16.18 1.03 13.29 1.03 13.29 2.48"/><rect class="cls-2" x="2.51" y="29.38" width="2.45" height="2.45"/><rect class="cls-2" x="4.95" y="31.82" width="2.45" height="4.89"/><polygon class="cls-2" points="2.51 24.49 7.4 24.49 7.4 22.04 2.51 22.04 2.51 24.49 0.06 24.49 0.06 29.38 2.51 29.38 2.51 24.49"/><polygon class="cls-2" points="9.84 26.93 9.84 29.38 12.29 29.38 12.29 2.48 9.84 2.48 9.84 24.49 7.4 24.49 7.4 26.93 9.84 26.93"/><rect class="cls-2" x="7.4" y="36.71" width="2.45" height="4.89"/><rect class="cls-2" x="9.84" y="41.61" width="2.45" height="4.89"/><polygon class="cls-2" points="34.3 51.39 14.73 51.39 14.73 46.5 12.29 46.5 12.29 53.83 36.74 53.83 36.74 46.5 34.3 46.5 34.3 51.39"/><rect class="cls-2" x="36.74" y="39.16" width="2.45" height="7.34"/><rect class="cls-2" x="12.29" y="0.03" width="4.89" height="2.45"/><polygon class="cls-2" points="17.18 24.49 19.63 24.49 19.63 14.71 24.52 14.71 24.52 12.26 19.63 12.26 19.63 2.48 17.18 2.48 17.18 24.49"/><polygon class="cls-2" points="24.52 24.49 26.96 24.49 26.96 17.15 31.85 17.15 31.85 14.71 24.52 14.71 24.52 24.49"/><polygon class="cls-2" points="31.85 26.93 34.3 26.93 34.3 19.6 36.74 19.6 36.74 17.15 31.85 17.15 31.85 26.93"/><rect class="cls-2" x="36.74" y="19.6" width="2.45" height="2.45"/><rect class="cls-2" x="39.19" y="22.04" width="2.45" height="17.12"/></svg>