<svg id="Layer_1" data-name="Layer 1" xmlns="http://www.w3.org/2000/svg" viewBox="0 0 54 54"><defs><style>.cls-1{fill:#fff;}.cls-2{fill:#1c1c1c;}</style></defs><polygon class="cls-1" points="9.84 41.6 14.73 39.16 22.07 31.82 22.07 34.27 26.96 44.05 31.85 44.05 31.85 39.16 26.96 29.38 36.74 29.38 36.74 26.93 9.84 0.03 9.84 41.6"/><polygon class="cls-2" points="12.29 4.92 14.73 4.92 14.73 2.48 12.29 2.48 12.29 0.03 9.84 0.03 9.84 41.6 14.73 41.6 14.73 39.16 12.29 39.16 12.29 4.92"/><rect class="cls-2" x="14.73" y="4.92" width="2.45" height="2.45"/><rect class="cls-2" x="17.18" y="7.37" width="2.45" height="2.45"/><rect class="cls-2" x="19.63" y="9.82" width="2.45" height="2.45"/><rect class="cls-2" x="22.07" y="12.26" width="2.45" height="2.45"/><rect class="cls-2" x="24.52" y="14.71" width="2.45" height="2.45"/><rect class="cls-2" x="26.96" y="17.15" width="2.45" height="2.45"/><rect class="cls-2" x="29.41" y="19.6" width="2.45" height="2.45"/><rect class="cls-2" x="31.85" y="22.04" width="2.45" height="2.45"/><rect class="cls-2" x="34.3" y="24.49" width="2.45" height="2.45"/><polygon class="cls-2" points="36.74 26.93 36.74 29.38 26.96 29.38 26.96 34.27 29.41 34.27 29.41 31.82 39.19 31.82 39.19 26.93 36.74 26.93"/><rect class="cls-2" x="29.41" y="34.27" width="2.45" height="4.89"/><rect class="cls-2" x="26.96" y="44.05" width="4.89" height="2.45"/><rect class="cls-2" x="24.52" y="39.16" width="2.45" height="4.89"/><rect class="cls-2" x="22.07" y="34.27" width="2.45" height="4.89"/><rect class="cls-2" x="19.63" y="31.82" width="2.45" height="2.45"/><rect class="cls-2" x="17.18" y="34.27" width="2.45" height="2.45"/><rect class="cls-2" x="14.73" y="36.71" width="2.45" height="2.45"/><rect class="cls-2" x="31.85" y="39.16" width="2.45" height="4.89"/></svg>